<svg xmlns="http://www.w3.org/2000/svg" viewBox="0 0 80 80" width="160px" height="160px"><path fill="#b0c1d4" d="M32.5,27.7c1.1-0.3,4.6-1.2,7.7-1.2c3.1,0,6.2,0.9,7.3,1.2v9.6c-1.3-0.4-4.2-1.1-7.3-1.1 c-3.1,0-6.4,0.8-7.7,1.2V27.7z"/><path fill="#66798f" d="M40.2,27c2.7,0,5.5,0.7,6.8,1.1v8.6c-1.5-0.4-4.1-1-6.8-1c-2.8,0-5.6,0.6-7.2,1v-8.6 C34.4,27.7,37.5,27,40.2,27 M40.2,26c-3.8,0-8.2,1.3-8.2,1.3S32,34,32,38c0,0,4.3-1.3,8.2-1.3S48,38,48,38c0-4,0-10.7,0-10.7 S44.1,26,40.2,26L40.2,26z"/><path fill="#b0c1d4" d="M32.5,35.7c1.1-0.3,4.6-1.2,7.7-1.2c3.1,0,6.2,0.9,7.3,1.2v9.6c-1.3-0.4-4.2-1.1-7.3-1.1 c-3.1,0-6.4,0.8-7.7,1.2V35.7z"/><path fill="#66798f" d="M40.2,35c2.7,0,5.5,0.7,6.8,1.1v8.6c-1.5-0.4-4.1-1-6.8-1c-2.8,0-5.6,0.6-7.2,1v-8.6 C34.4,35.7,37.5,35,40.2,35 M40.2,34c-3.8,0-8.2,1.3-8.2,1.3S32,42,32,46c0,0,4.3-1.3,8.2-1.3S48,46,48,46c0-4,0-10.7,0-10.7 S44.1,34,40.2,34L40.2,34z"/><path fill="#b0c1d4" d="M16.5,26.2V16c0-4.1,3.4-7.5,7.5-7.5s7.5,3.4,7.5,7.5v10.2H16.5z"/><path fill="#66798f" d="M24,9c3.9,0,7,3.1,7,7v9.7H17V16C17,12.1,20.1,9,24,9 M24,8c-4.4,0-8,3.6-8,8c0,0.5,0,10.2,0,10.7 h16c0-0.5,0-10.2,0-10.7C32,11.6,28.4,8,24,8L24,8z"/><path fill="#b0c1d4" d="M0.5,53.4C0.9,43.8,11.1,22.2,11.2,22c0,0,3.6-5.5,11.2-5.5c8.4,0,11.1,6.2,11.1,9.2v27.7H0.5z"/><path fill="#66798f" d="M22.4,17c3.6,0,6.5,1.2,8.4,3.4c1.6,1.9,2.2,4,2.2,5.3v27.2H1c0.7-9.5,10-29.4,10.6-30.6 C12,21.7,15.5,17,22.4,17 M22.4,16c-7.9,0-11.6,5.8-11.6,5.8S0,44.3,0,53.9h34c0-17.5,0-25.8,0-28.2C34,22.7,31.4,16,22.4,16 L22.4,16z"/><path fill="#dcd5f2" d="M17,71.5C7.9,71.5,0.5,64.1,0.5,55S7.9,38.5,17,38.5S33.5,45.9,33.5,55S26.1,71.5,17,71.5z"/><path fill="#8b75a1" d="M17,39c8.8,0,16,7.2,16,16s-7.2,16-16,16S1,63.8,1,55S8.2,39,17,39 M17,38C7.6,38,0,45.6,0,55 s7.6,17,17,17s17-7.6,17-17S26.4,38,17,38L17,38z"/><path fill="#fff" d="M9.5,55h-1c0-4.7,3.8-8.5,8.5-8.5v1C12.9,47.5,9.5,50.9,9.5,55z"/><g><path fill="#b0c1d4" d="M48.5,26.2V16c0-4.1,3.4-7.5,7.5-7.5s7.5,3.4,7.5,7.5v10.2H48.5z"/><path fill="#66798f" d="M56,9c3.9,0,7,3.1,7,7v9.7H49V16C49,12.1,52.1,9,56,9 M56,8c-4.4,0-8,3.6-8,8c0,0.5,0,10.2,0,10.7 h16c0-0.5,0-10.2,0-10.7C64,11.6,60.4,8,56,8L56,8z"/></g><g><path fill="#b0c1d4" d="M46.5,53.4V25.7c0-3,2.7-9.2,11.1-9.2c7.5,0,11.2,5.5,11.2,5.6c0.1,0.2,10.3,21.7,10.7,31.4H46.5z"/><path fill="#66798f" d="M57.6,17c7,0,10.4,4.7,10.7,5.3c0.6,1.3,10,21.1,10.6,30.6H47V25.7c0-1.3,0.6-3.5,2.2-5.3 C51.1,18.2,54,17,57.6,17 M57.6,16c-9,0-11.6,6.7-11.6,9.7c0,2.5,0,10.8,0,28.2h34c0-9.6-10.8-32.1-10.8-32.1S65.5,16,57.6,16 L57.6,16z"/></g><g><path fill="#dcd5f2" d="M63,71.5c-9.1,0-16.5-7.4-16.5-16.5S53.9,38.5,63,38.5S79.5,45.9,79.5,55S72.1,71.5,63,71.5z"/><path fill="#8b75a1" d="M63,39c8.8,0,16,7.2,16,16s-7.2,16-16,16s-16-7.2-16-16S54.2,39,63,39 M63,38c-9.4,0-17,7.6-17,17 s7.6,17,17,17s17-7.6,17-17S72.4,38,63,38L63,38z"/></g><path fill="#fff" d="M55.5,55h-1c0-4.7,3.8-8.5,8.5-8.5v1C58.9,47.5,55.5,50.9,55.5,55z"/></svg>