<svg xmlns="http://www.w3.org/2000/svg" xmlns:xlink="http://www.w3.org/1999/xlink" version="1.1" x="0px" y="0px" viewBox="0 0 48 60" style="enable-background:new 0 0 48 48;" xml:space="preserve"><g><path d="M27.55,31.45c2.82,0,5.63-1.07,7.78-3.22c4.29-4.29,4.29-11.27,0-15.56c-4.29-4.29-11.27-4.29-15.56,0   c-4.29,4.29-4.29,11.27,0,15.56C21.92,30.37,24.73,31.45,27.55,31.45z M21.18,14.09c1.75-1.75,4.06-2.63,6.36-2.63   c2.3,0,4.61,0.88,6.36,2.63c3.51,3.51,3.51,9.22,0,12.73c-3.51,3.51-9.22,3.51-12.73,0C17.68,23.31,17.68,17.6,21.18,14.09z"/><path d="M8.46,42.54c0.77,0,1.54-0.29,2.12-0.88l8.7-8.7c2.43,1.62,5.29,2.48,8.27,2.48c4.01,0,7.77-1.56,10.61-4.39   c5.85-5.85,5.85-15.36,0-21.21C32.31,4,22.79,4,16.94,9.84c-2.83,2.83-4.39,6.6-4.39,10.61c0,2.99,0.87,5.84,2.49,8.27l-8.7,8.7   c-1.17,1.17-1.17,3.07,0,4.24C6.92,42.25,7.69,42.54,8.46,42.54z M14.55,20.45c0-3.47,1.35-6.74,3.81-9.19   c2.53-2.53,5.86-3.8,9.19-3.8c3.33,0,6.66,1.27,9.19,3.8c5.07,5.07,5.07,13.32,0,18.38c-2.46,2.46-5.72,3.81-9.19,3.81   c-3.47,0-6.74-1.35-9.19-3.81C15.9,27.19,14.55,23.92,14.55,20.45z M7.75,38.84l8.52-8.52c0.22,0.25,0.43,0.5,0.67,0.74   c0.24,0.24,0.49,0.45,0.74,0.67l-8.52,8.52c-0.39,0.39-1.03,0.39-1.41,0C7.36,39.86,7.36,39.23,7.75,38.84z"/></g><text x="0" y="63" fill="#000000" font-size="5px" font-weight="bold" font-family="'Helvetica Neue', Helvetica, Arial-Unicode, Arial, Sans-serif">Created by newstudiodesign10</text><text x="0" y="68" fill="#000000" font-size="5px" font-weight="bold" font-family="'Helvetica Neue', Helvetica, Arial-Unicode, Arial, Sans-serif">from the Noun Project</text></svg>